<svg xmlns="http://www.w3.org/2000/svg" viewBox="0 0 64 64" width="64" height="64">
  <defs>
    <linearGradient id="leafGrad" x1="0%" y1="0%" x2="100%" y2="100%">
      <stop offset="0%" style="stop-color:#74c69d"/>
      <stop offset="100%" style="stop-color:#1a472a"/>
    </linearGradient>
    <linearGradient id="wheatGrad" x1="0%" y1="100%" x2="0%" y2="0%">
      <stop offset="0%" style="stop-color:#f4a261"/>
      <stop offset="100%" style="stop-color:#e9c46a"/>
    </linearGradient>
  </defs>
  <circle cx="32" cy="32" r="30" fill="#0d1b12" stroke="#74c69d" stroke-width="1.5" opacity="0.9"/>
  <ellipse cx="32" cy="52" rx="14" ry="4" fill="#1a472a" opacity="0.6"/>
  <path d="M32 48 Q28 38 32 28 Q36 38 32 48" fill="url(#leafGrad)" opacity="0.8"/>
  <path d="M32 28 L32 12" stroke="url(#wheatGrad)" stroke-width="2" stroke-linecap="round"/>
  <ellipse cx="32" cy="10" rx="3" ry="5" fill="url(#wheatGrad)" transform="rotate(0 32 10)"/>
  <ellipse cx="28" cy="14" rx="2.5" ry="4.5" fill="url(#wheatGrad)" transform="rotate(-25 28 14)"/>
  <ellipse cx="36" cy="14" rx="2.5" ry="4.5" fill="url(#wheatGrad)" transform="rotate(25 36 14)"/>
  <ellipse cx="26" cy="18" rx="2" ry="4" fill="url(#wheatGrad)" transform="rotate(-40 26 18)"/>
  <ellipse cx="38" cy="18" rx="2" ry="4" fill="url(#wheatGrad)" transform="rotate(40 38 18)"/>
  <ellipse cx="30" cy="22" rx="2" ry="3.5" fill="url(#wheatGrad)" transform="rotate(-15 30 22)"/>
  <ellipse cx="34" cy="22" rx="2" ry="3.5" fill="url(#wheatGrad)" transform="rotate(15 34 22)"/>
  <circle cx="32" cy="8" r="2" fill="#f4a261"/>
</svg>
